<?xml version="1.0" encoding="utf-8"?>
<svg version="1.1" xmlns:xlink="http://www.w3.org/1999/xlink" width="71px" height="40px" xmlns="http://www.w3.org/2000/svg">
  <g transform="matrix(1 0 0 1 -244 -192 )">
    <path d="M 67.89375 22.2869318181818  C 69.9645833333333 24.2660984848485  71 26.5340909090909  71 29.0909090909091  C 71 32.1022727272727  69.61328125 34.6732954545454  66.83984375 36.8039772727273  C 64.06640625 38.9346590909091  60.7197916666667 40  56.8 40  L 16.5666666666667 40  C 12.0059027777777 40  8.10460069444446 38.7547348484848  4.86276041666662 36.2642045454546  C 1.62092013888889 33.7736742424242  0 30.7765151515152  0 27.2727272727273  C 0 24.7727272727273  0.875173611111109 22.4857954545454  2.62552083333338 20.4119318181818  C 4.37586805555554 18.3380681818182  6.68090277777776 16.7897727272727  9.54062500000004 15.7670454545454  C 9.49131944444446 15.2367424242424  9.4666666666667 14.8295454545454  9.4666666666667 14.5454545454546  C 9.4666666666667 10.530303030303  11.315625 7.10227272727275  15.0135416666667 4.26136363636363  C 18.7114583333334 1.42045454545456  23.1736111111111 0  28.4 0  C 32.2951388888889 0  35.8266493055555 0.833333333333371  38.99453125 2.5  C 42.1624131944444 4.16666666666663  44.4736111111111 6.344696969697  45.928125 9.03409090909093  C 47.6538194444445 7.85984848484844  49.7 7.27272727272725  52.0666666666667 7.27272727272725  C 54.6798611111111 7.27272727272725  56.9109375 7.98295454545456  58.7598958333333 9.40340909090907  C 60.6088541666666 10.8238636363636  61.5333333333333 12.5378787878788  61.5333333333333 14.5454545454546  C 61.5333333333333 15.9659090909091  61.0279513888888 17.2727272727273  60.0171875 18.4659090909091  C 63.1973958333333 19.0340909090909  65.8229166666667 20.3077651515152  67.89375 22.2869318181818  Z " fill-rule="nonzero" fill="#0099cc" stroke="none" transform="matrix(1 0 0 1 244 192 )" />
  </g>
</svg>